<svg width="42" height="42" viewBox="0 0 42 42" fill="none" xmlns="http://www.w3.org/2000/svg">
<path d="M12.5833 41.8333C11.4374 41.8333 10.4565 41.4253 9.64054 40.6093C8.82457 39.7934 8.41658 38.8125 8.41658 37.6666C8.41658 36.5208 8.82457 35.5399 9.64054 34.7239C10.4565 33.9079 11.4374 33.5 12.5833 33.5C13.7291 33.5 14.71 33.9079 15.526 34.7239C16.3419 35.5399 16.7499 36.5208 16.7499 37.6666C16.7499 38.8125 16.3419 39.7934 15.526 40.6093C14.71 41.4253 13.7291 41.8333 12.5833 41.8333ZM33.4166 41.8333C32.2708 41.8333 31.2898 41.4253 30.4739 40.6093C29.6579 39.7934 29.2499 38.8125 29.2499 37.6666C29.2499 36.5208 29.6579 35.5399 30.4739 34.7239C31.2898 33.9079 32.2708 33.5 33.4166 33.5C34.5624 33.5 35.5433 33.9079 36.3593 34.7239C37.1753 35.5399 37.5833 36.5208 37.5833 37.6666C37.5833 38.8125 37.1753 39.7934 36.3593 40.6093C35.5433 41.4253 34.5624 41.8333 33.4166 41.8333ZM10.8124 8.49996L15.8124 18.9166H30.3958L36.1249 8.49996H10.8124ZM8.83325 4.33329H39.5624C40.361 4.33329 40.9687 4.6892 41.3853 5.401C41.802 6.11281 41.8194 6.83329 41.4374 7.56246L34.0416 20.8958C33.6596 21.5902 33.1475 22.1284 32.5051 22.5104C31.8628 22.8923 31.1596 23.0833 30.3958 23.0833H14.8749L12.5833 27.25H37.5833V31.4166H12.5833C11.0208 31.4166 9.8402 30.7309 9.04158 29.3593C8.24297 27.9878 8.20825 26.625 8.93742 25.2708L11.7499 20.1666L4.24992 4.33329H0.083252V0.166626H6.85408L8.83325 4.33329Z" fill="#1C1B1F"/>
</svg>
